<svg width="397" height="152" viewBox="0 0 397 152" fill="none" xmlns="http://www.w3.org/2000/svg">
<path d="M85.0225 4.68389C88.7642 4.68707 92.5051 4.66335 96.2467 4.63823C152.693 4.49157 152.693 4.49157 168.958 19.8472C173.992 25.1786 177.557 31.0041 178.376 38.3746C178.001 40.9996 178.001 40.9996 176.001 43.9996C175.576 46.995 175.576 46.995 175.438 50.3121C175.247 53.6667 175.04 56.8139 174.348 60.105C173.749 62.9945 173.749 62.9945 175.087 65.4136C176.418 69.1801 175.073 71.851 173.626 75.3746C173.349 76.0736 173.072 76.7725 172.787 77.4927C166.001 94.1567 156.332 107.887 144.001 121C143.194 121.903 143.194 121.903 142.372 122.824C129.702 136.446 111.844 145.88 93.2701 147.281C74.4139 147.742 59.7487 140.712 46.0006 128C23.0651 105.733 18.5098 75.1929 14.6881 44.8746C14.6006 44.1818 14.5132 43.4889 14.4231 42.7751C11.8749 22.2976 11.8749 22.2976 16.0006 13.9996C23.1096 6.2292 33.2733 6.52865 43.1412 5.89409C45.047 5.76826 45.047 5.76826 46.9913 5.6399C59.6649 4.86341 72.3256 4.66139 85.0225 4.68389Z" fill="#FAFCFC"/>
<path d="M307.75 4.75033C309.709 4.75448 309.709 4.75448 311.708 4.75872C326.546 4.79573 341.376 4.86509 356.188 5.81283C357.89 5.91772 357.89 5.91772 359.626 6.02474C366.689 6.58242 373.967 7.29013 378.875 12.9378C386.226 23.5319 382.961 37.8948 381.312 50.0628C381.224 50.7282 381.136 51.3936 381.045 52.0791C377.185 80.9609 370.422 108.125 349 129C347.745 130.251 347.745 130.251 346.465 131.528C335.622 141.855 323.729 146.95 308.75 147.438C283.307 146.789 263.34 132.432 246.297 114.641C235.174 102.618 221.94 83.7941 220.809 67.1917C221 65.0003 221 65.0003 222 64.0003C221.934 62.5381 221.795 61.0791 221.625 59.6253C221.085 54.8713 220.702 50.1215 220.379 45.348C220.124 42.7369 220.124 42.7369 218 40.0003C218.256 31.5379 222.063 24.5261 228.125 18.8128C235.092 13.3312 243.039 10.772 251.562 8.81283C252.227 8.65798 252.891 8.50313 253.575 8.34359C271.47 4.54866 289.547 4.67553 307.75 4.75033Z" fill="#FAFCFC"/>
<path d="M103.151 0.475276C120.289 1.06508 137.412 1.14898 154.558 1.13475C158.71 1.13214 162.863 1.13458 167.015 1.13613C173.977 1.13793 180.938 1.13561 187.9 1.13079C195.846 1.12536 203.792 1.12712 211.739 1.13262C218.671 1.13722 225.604 1.13777 232.537 1.13518C236.629 1.13366 240.722 1.13332 244.814 1.13672C262.495 1.14948 280.146 0.988903 297.817 0.328794C309.848 -0.10493 321.82 0.125591 333.846 0.614681C337.322 0.753289 340.797 0.865849 344.273 0.976985C374.897 2.0706 374.897 2.0706 382 9.00042C383.605 11.7652 385.054 14.5464 386.41 17.4418C388.251 20.4047 389.98 21.3495 393 23.0004C396.237 27.8004 396.444 31.3995 396 37.0004C394.881 41.4752 392.828 43.4794 389 46.0004C388.01 46.0004 387.02 46.0004 386 46.0004C385.853 47.2263 385.706 48.4522 385.554 49.7153C383.183 68.3501 379.985 87.8471 372 105C371.67 105.729 371.34 106.457 371 107.207C361.288 126.453 345.397 141.604 325.218 149.309C308.395 154.552 291.268 150.483 275.812 143.25C265.149 137.593 255.606 130.452 247 122C246.202 121.227 245.404 120.454 244.582 119.657C233.529 108.27 224.743 94.1435 220 79.0004C219.559 77.69 219.116 76.3801 218.672 75.0707C216.27 67.8453 214.397 60.8449 213.457 53.2582C213.178 50.8099 213.178 50.8099 211 49.0004C206.904 47.8396 202.862 47.8344 198.625 47.8129C197.359 47.7987 196.093 47.7846 194.789 47.77C190.816 48.0116 187.759 48.7715 184 50.0004C183.671 51.7619 183.671 51.7619 183.336 53.559C180.604 67.6434 177.363 81.6716 169.418 93.8246C168.042 95.9348 166.899 98.0739 165.75 100.313C153.038 123.202 130.413 142.405 105.25 150C87.9441 153.579 71.6611 151.2 56.6872 141.75C50.6253 137.719 45.1547 133.146 39.9997 128C39.0832 127.101 39.0832 127.101 38.1481 126.184C20.0528 107.056 13.2615 77.9454 11.8073 52.4069C11.6771 50.1031 11.6771 50.1031 10.9997 47.0004C9.19007 45.5015 9.19007 45.5015 6.99969 45.0004C2.13176 42.3966 2.13176 42.3966 0.999689 39.0004C0.605684 34.1057 0.397822 29.5526 2.18719 24.9379C3.99969 23.0004 3.99969 23.0004 6.56219 22.0629C7.36656 21.7123 8.17094 21.3617 8.99969 21.0004C10.1292 18.1967 10.1292 18.1967 10.9997 15.0004C13.9251 9.4871 17.3945 6.51061 22.9997 4.00042C30.7564 2.14991 38.6609 1.62471 46.6052 1.33245C48.2269 1.26655 48.2269 1.26655 49.8814 1.19932C52.1662 1.10901 54.4512 1.02267 56.7363 0.94012C60.1067 0.81589 63.4758 0.671755 66.8454 0.525813C78.9789 0.0449647 91.0168 0.0197771 103.151 0.475276ZM43.1794 5.82855C41.9881 5.89765 40.7969 5.96676 39.5695 6.03796C31.263 6.62514 21.8711 7.43826 15.9997 14.0004C11.4687 21.6818 13.0191 30.5607 13.9997 39.0004C14.1226 40.0597 14.2456 41.119 14.3722 42.2104C19.3975 84.5296 19.3975 84.5296 39.9997 121C40.6971 121.869 41.3945 122.738 42.113 123.633C51.851 135.276 66.6228 145.284 81.9997 147C103.094 148.591 121.543 140.871 137.429 127.372C153.786 113.09 173.008 90.2972 176 68.0004C175.68 67.2682 175.36 66.536 175.031 65.7817C173.47 61.5723 174.217 57.768 174.75 53.3754C174.837 52.5169 174.925 51.6584 175.015 50.7739C175.732 44.4017 175.732 44.4017 178 41.0004C178.97 34.208 175.987 28.7207 172.082 23.3754C164.792 14.7049 157.353 11.3373 146.562 8.81292C145.902 8.65775 145.242 8.50258 144.562 8.34271C127.547 4.7512 110.261 4.68218 92.9518 4.73968C89.1655 4.75031 85.3797 4.73978 81.5934 4.72699C68.7622 4.71825 55.9841 5.0229 43.1794 5.82855ZM225.062 21.6879C221.469 26.1897 219.147 31.3567 218 37.0004C218.285 40.3189 218.285 40.3189 220 43.0004C220.405 45.398 220.754 47.7777 221.062 50.1879C221.153 50.8486 221.244 51.5092 221.338 52.1899C221.858 56.15 222.188 60.0074 222 64.0004C221.505 64.4954 221.505 64.4954 221 65.0004C222.668 83.3498 233.916 100.684 246 114C246.463 114.513 246.927 115.026 247.404 115.554C262.543 132.077 281.805 145.341 304.66 147.317C320.537 147.826 333.383 143 345.187 132.563C346.798 131.05 348.403 129.529 350 128C350.627 127.436 351.255 126.871 351.902 126.289C372.457 107.179 377.705 76.7531 381.25 50.3129C381.425 49.0308 381.601 47.7487 381.781 46.4277C384.518 29.384 384.518 29.384 379.679 13.6137C365.438 -0.0642023 331.109 4.78802 312.753 4.76019C308.902 4.75049 305.053 4.71937 301.203 4.68792C260.274 3.91085 260.274 3.91085 225.062 21.6879Z" fill="#080C0B"/>
<path d="M151 4.99982C162.961 4.95355 174.921 4.91798 186.882 4.89619C192.436 4.88574 197.989 4.87155 203.542 4.84894C208.898 4.82726 214.254 4.81526 219.61 4.81006C221.657 4.80636 223.704 4.79912 225.751 4.78836C228.61 4.77392 231.468 4.77184 234.328 4.77277C235.607 4.76198 235.607 4.76198 236.913 4.75098C242.772 4.77171 242.772 4.77171 245 6.99982C244.25 7.19575 243.5 7.39169 242.727 7.59357C232.367 10.6204 223.989 15.9176 218.176 25.2186C216.344 29.5513 215.605 34.0382 214.936 38.6795C214.678 40.4616 214.345 42.2325 214 43.9998C211.456 45.2716 210.686 44.718 208 43.9998C206.618 43.9116 205.232 43.8692 203.848 43.867C203.071 43.8657 202.294 43.8644 201.494 43.8631C200.29 43.8689 200.29 43.8689 199.062 43.8748C197.865 43.869 197.865 43.869 196.643 43.8631C192.63 43.8697 188.916 44.0031 185 44.9998C183.221 41.1032 181.817 37.3993 180.75 33.2498C177.838 23.263 172.032 15.6189 163.188 10.3123C159.204 8.67218 155.222 7.79733 151 6.99982C151 6.33982 151 5.67982 151 4.99982Z" fill="#F9FBFB"/>
<path d="M151 4.99982C162.961 4.95355 174.921 4.91798 186.882 4.89619C192.436 4.88574 197.989 4.87155 203.542 4.84894C208.898 4.82726 214.254 4.81526 219.61 4.81006C221.657 4.80636 223.704 4.79912 225.751 4.78836C228.61 4.77392 231.468 4.77184 234.328 4.77277C235.607 4.76198 235.607 4.76198 236.913 4.75098C242.772 4.77171 242.772 4.77171 245 6.99982C240.533 8.11304 236.159 8.14106 231.585 8.12921C230.333 8.13184 230.333 8.13184 229.056 8.13452C226.306 8.13891 223.555 8.13601 220.805 8.13263C218.891 8.1333 216.977 8.13427 215.063 8.13553C211.057 8.137 207.051 8.13486 203.044 8.13019C197.905 8.12448 192.766 8.12778 187.626 8.13376C183.677 8.13737 179.727 8.13623 175.778 8.13363C173.882 8.13296 171.987 8.13379 170.091 8.13611C167.446 8.13865 164.801 8.13479 162.156 8.12921C161.37 8.13124 160.585 8.13326 159.775 8.13535C156.583 8.12285 154.051 8.01682 151 6.99982C151 6.33982 151 5.67982 151 4.99982Z" fill="#DBDEDD"/>
<path d="M138 1.00049C140.771 0.946564 143.541 0.906854 146.312 0.875488C147.098 0.85873 147.884 0.841973 148.693 0.824707C149.451 0.818262 150.208 0.811816 150.988 0.805176C151.685 0.794702 152.381 0.784229 153.099 0.773438C155 1.00049 155 1.00049 158 3.00049C153.91 4.15031 149.968 4.11143 145.75 4.06299C145.005 4.05848 144.26 4.05396 143.492 4.04932C141.661 4.03758 139.831 4.01965 138 4.00049C138 3.01049 138 2.02049 138 1.00049Z" fill="#282B2A"/>
</svg>
