<svg width="389" height="94" viewBox="0 0 389 94" fill="none" xmlns="http://www.w3.org/2000/svg">
<path d="M50.4282 0.151567C72.967 -0.15455 95.2039 -0.348153 117.523 3.23409C118.437 3.3733 119.351 3.51252 120.292 3.65596C133.092 5.63864 145.638 8.5914 158.189 11.7722C189.227 19.5523 216.766 15.4915 247.303 7.81538C260.575 4.57165 273.952 2.75384 287.523 1.23409C288.352 1.12951 289.18 1.02494 290.033 0.917192C300.081 -0.21223 310.24 0.0805019 320.336 0.109086C321.874 0.112409 321.874 0.112409 323.443 0.1158C330.803 0.134376 338.163 0.179468 345.523 0.234086C346.99 0.243452 346.99 0.243452 348.486 0.253007C353.903 0.28905 359.318 0.347457 364.733 0.44362C366.377 0.470462 368.02 0.490833 369.664 0.504533C371.934 0.52555 374.203 0.571594 376.473 0.624711C378.381 0.656132 378.381 0.656132 380.327 0.688188C384.056 1.3251 385.254 2.26671 387.523 5.23409C388.954 10.2176 387.546 14.5716 385.273 19.0466C380.555 28.576 379.368 39.596 377.785 50.0231C376.192 60.3489 374.174 68.1723 365.6 74.8327C357.931 80.0086 348.796 81.3872 339.836 82.7966C338.865 82.9529 338.865 82.9529 337.874 83.1124C246.417 97.7791 246.417 97.7791 223.523 81.2341C218.091 76.5642 214.977 70.5904 211.578 64.3972C208.144 58.2865 204.265 52.6373 197.523 50.1091C190 50.4226 185.798 51.9306 180.66 57.4216C177.915 61.0344 175.704 64.8586 173.461 68.7966C167.586 79.1052 162.223 85.474 150.523 89.2341C143.3 90.5754 136.155 90.2421 128.836 89.9841C127.84 89.9501 127.84 89.9501 126.825 89.9154C34.1111 86.6519 34.1111 86.6519 16.5234 70.2341C11.2825 62.1188 10.6528 52.5148 9.24438 43.1508C7.80728 33.7316 5.9476 25.7864 1.52344 17.2341C0.568368 14.3689 0.264309 12.2289 0.148438 9.23409C0.0994531 8.36784 0.0504688 7.50159 0 6.60909C0.523438 4.23409 0.523438 4.23409 2.59351 2.61763C6.21834 0.905944 8.91928 0.802149 12.9258 0.722367C13.6591 0.704235 14.3925 0.686102 15.148 0.66742C17.5856 0.611862 20.0229 0.578325 22.4609 0.546586C24.1885 0.515565 25.916 0.483978 27.6436 0.45186C32.2969 0.371649 36.9502 0.315702 41.6039 0.266618C44.5455 0.233841 47.4868 0.193451 50.4282 0.151567Z" fill="#050908"/>
<path d="M156.523 24.6088C161.443 29.9043 162.988 35.1967 162.75 42.2884C160.966 65.4727 160.966 65.4727 153.382 73.6947C143.655 81.7463 129.479 80.4386 117.648 80.4213C116.948 80.421 116.247 80.4207 115.526 80.4204C101.46 80.3955 87.5249 79.5968 73.5229 78.2338C72.3903 78.1266 71.2577 78.0194 70.0908 77.909C30.593 74.0824 30.593 74.0824 21.5229 64.2338C19.8576 59.9555 19.0517 55.8297 18.4526 51.2884C18.3667 50.6373 18.2807 49.9862 18.1922 49.3153C18.0128 47.9425 17.8365 46.5693 17.6631 45.1957C17.4012 43.134 17.1248 41.0746 16.8472 39.015C16.0356 32.8393 15.3576 26.6542 15.0933 20.4291C15.0316 19.0255 15.0316 19.0255 14.9688 17.5936C15.5229 15.2338 15.5229 15.2338 17.8357 13.4525C21.1979 11.9277 24.166 11.5144 27.8354 11.1088C28.5377 11.0309 29.2399 10.9531 29.9634 10.8729C62.8872 7.36898 128.934 2.65515 156.523 24.6088Z" fill="#FAFCFC"/>
<path d="M317.247 9.11696C328.909 8.70067 340.488 9.28945 352.105 10.3007C353.499 10.4218 354.894 10.5379 356.289 10.6488C358.248 10.8087 360.204 10.9972 362.16 11.1868C363.857 11.3439 363.857 11.3439 365.589 11.5042C369.078 12.3715 370.406 13.3501 372.523 16.2337C372.96 18.3394 372.96 18.3394 372.855 20.6438C372.819 21.5231 372.782 22.4024 372.745 23.3084C372.331 28.7763 371.823 34.2217 371.211 39.6712C371.093 40.8216 370.975 41.9721 370.854 43.1575C368.722 62.4496 368.722 62.4496 363.648 67.6712C348.679 78.4563 323.284 77.7903 305.523 79.2337C304.211 79.3471 302.899 79.4605 301.547 79.5774C292.51 80.24 283.467 80.3599 274.409 80.4089C273.009 80.4169 271.608 80.4279 270.208 80.4422C244.04 80.6809 244.04 80.6809 233.812 71.7376C225.938 63.7282 225.568 51.2599 225.336 40.6087C225.427 34.6578 225.641 30.0621 230.098 25.7327C233.666 22.8915 237.387 21.4846 241.703 20.1243C242.487 19.8714 243.27 19.6185 244.077 19.358C252.793 16.6651 261.633 15.2477 270.648 13.9837C272.371 13.7319 274.094 13.4798 275.816 13.2273C289.598 11.2395 303.331 9.71331 317.247 9.11696Z" fill="#FAFCFC"/>
</svg>
