<svg width="203" height="50" viewBox="0 0 203 50" fill="none" xmlns="http://www.w3.org/2000/svg">
<path d="M3.24515 1.22784V27.4098H11.3148V30.4797H0V1.22784H3.24515Z" fill="#010101"/>
<path d="M33.5046 4.29789H21.5757V12.9812H33.1536V16.0511H21.5757V27.4096H33.5046V30.4799H18.3301V1.22803H33.5046V4.29789Z" fill="#010101"/>
<path d="M55.1682 7.01685C54.7734 6.22742 54.1156 5.35056 53.4577 4.82427C52.8877 4.38541 51.8351 3.81541 50.1689 3.81541C47.2743 3.81541 45.257 5.6137 45.257 8.33257C45.257 9.473 45.5638 10.1304 46.3533 10.8762C47.2306 11.753 48.3264 12.236 49.4231 12.7182L52.2299 13.946C53.9403 14.6917 55.5192 15.4812 56.7466 16.709C58.238 18.2 58.8522 19.9105 58.8522 22.0156C58.8522 27.4096 54.8613 31.0058 49.5984 31.0058C47.669 31.0058 45.257 30.6111 43.2393 28.6379C41.7924 27.2344 40.9151 25.2171 40.5204 23.4629L43.6781 22.5856C43.8971 24.1208 44.5991 25.4365 45.4323 26.3134C46.7038 27.5854 48.1511 27.9359 49.6421 27.9359C53.633 27.9359 55.5192 25.0855 55.5192 22.1468C55.5192 20.8315 55.124 19.691 54.0719 18.7263C53.2387 17.9369 52.0983 17.4106 50.5631 16.709L47.9321 15.4812C46.7917 14.9549 45.3444 14.3407 44.0287 13.0687C42.7571 11.8409 42.0114 10.4814 42.0114 8.28885C42.0114 3.77169 45.476 0.745539 50.2126 0.745539C52.0104 0.745539 53.4577 1.09654 54.905 2.06126C56.0892 2.85069 57.0976 4.03484 57.7559 5.30641L55.1682 7.01685Z" fill="#010101"/>
<path d="M83.5406 27.4097H87.2684C89.1541 27.4097 90.9961 27.2781 92.3992 26.1818C93.5401 25.3487 94.3291 23.9014 94.3291 22.1468C94.3291 19.8227 92.9697 18.4632 91.8292 17.8491C90.7329 17.2354 89.1978 16.9722 86.8736 16.9722H83.5406V27.4097ZM83.5406 14.0776H85.9964C87.7068 14.0776 91.7414 13.7266 91.7414 9.2099C91.7414 4.38545 87.0052 4.29802 86.0842 4.29802H83.5406V14.0776ZM85.5584 1.22772C87.1809 1.22772 90.1188 1.35972 92.2681 3.07016C93.1887 3.77173 94.8991 5.5696 94.8991 9.12204C94.8991 10.5689 94.5922 13.1129 92.0045 14.8671C96.0833 15.8759 97.5743 19.4279 97.5743 22.2347C97.5743 25.0414 96.1711 27.3218 94.5922 28.5501C92.2681 30.3921 89.5925 30.4796 87.5752 30.4796H80.295V1.22772H85.5584Z" fill="#010101"/>
<path d="M139.323 30.4796H136.077V1.22778H139.323V30.4796Z" fill="#010101"/>
<path d="M149.496 30.4798V5.91278e-05L172.301 23.9016V1.22792H175.546V31.7955L152.742 7.89395V30.4798H149.496Z" fill="#010101"/>
<path d="M198.789 7.01685C198.394 6.22742 197.736 5.35056 197.079 4.82427C196.508 4.38541 195.456 3.81541 193.789 3.81541C190.895 3.81541 188.878 5.6137 188.878 8.33257C188.878 9.473 189.184 10.1304 189.974 10.8762C190.851 11.753 191.947 12.236 193.044 12.7182L195.85 13.946C197.561 14.6917 199.14 15.4812 200.367 16.709C201.859 18.2 202.473 19.9105 202.473 22.0156C202.473 27.4096 198.482 31.0058 193.219 31.0058C191.29 31.0058 188.878 30.6111 186.86 28.6379C185.413 27.2344 184.536 25.2171 184.141 23.4629L187.298 22.5856C187.518 24.1208 188.22 25.4365 189.053 26.3134C190.324 27.5854 191.772 27.9359 193.263 27.9359C197.254 27.9359 199.14 25.0855 199.14 22.1468C199.14 20.8315 198.745 19.691 197.692 18.7263C196.859 17.9369 195.719 17.4106 194.184 16.709L191.553 15.4812C190.412 14.9549 188.965 14.3407 187.65 13.0687C186.378 11.8409 185.632 10.4814 185.632 8.28885C185.632 3.77169 189.097 0.745539 193.833 0.745539C195.631 0.745539 197.079 1.09654 198.526 2.06126C199.71 2.85069 200.719 4.03484 201.376 5.30641L198.789 7.01685Z" fill="#010101"/>
<path d="M111.294 30.385H120.924L120.861 30.2322C120.074 28.3586 118.241 27.1394 116.209 27.1394C114.068 27.1394 112.135 28.4166 111.294 30.385Z" fill="#010101"/>
<path d="M106.335 30.5266L116.202 7.42187L125.829 30.5266H129.439L116.121 0.0936565L102.724 30.5266H106.335Z" fill="#010101"/>
<path d="M0.0998535 45.278H76.2597V48.5236H0.0998535V45.278Z" fill="#010101"/>
<path d="M126.213 45.278H202.373V48.5236H126.213V45.278Z" fill="#010101"/>
<path d="M83.2295 45.6148H83.9488C84.9863 45.6148 85.6108 45.0963 85.6108 44.1882C85.6108 42.9387 84.444 42.821 83.8779 42.821H83.2295V45.6148ZM83.7835 41.9961C84.5734 41.9961 85.2334 42.09 85.764 42.5497C86.3418 43.0448 86.4833 43.7403 86.4833 44.2354C86.4833 45.3438 85.7878 46.4401 83.996 46.4401H83.2295V49.8588H82.357V41.9961H83.7835Z" fill="#1D1D1B"/>
<path d="M94.418 46.8172L93.0979 43.6698L91.7541 46.8172H94.418ZM94.7603 47.6425H91.4122L90.4686 49.8585H89.5022L93.1213 41.6183L96.646 49.8585H95.6796L94.7603 47.6425Z" fill="#1D1D1B"/>
<path d="M101.929 45.6384H102.483C103.567 45.6384 104.216 45.1199 104.216 44.2002C104.216 43.764 104.086 43.3277 103.591 43.0451C103.237 42.8447 102.836 42.8209 102.46 42.8209H101.929V45.6384ZM102.318 41.996C102.849 41.996 103.638 42.031 104.227 42.4322C104.687 42.7387 105.088 43.3394 105.088 44.1764C105.088 45.3788 104.298 46.263 103.108 46.3456L105.607 49.8587H104.546L102.153 46.4166H101.929V49.8587H101.056V41.996H102.318Z" fill="#1D1D1B"/>
<path d="M111.149 49.8588H110.276V41.9961H111.149V49.8588Z" fill="#1D1D1B"/>
<path d="M119.991 43.5517C119.885 43.3397 119.708 43.1038 119.531 42.9623C119.378 42.8445 119.095 42.6913 118.647 42.6913C117.87 42.6913 117.327 43.1748 117.327 43.9053C117.327 44.2118 117.409 44.3888 117.621 44.5892C117.857 44.8246 118.152 44.9544 118.446 45.0843L119.201 45.4145C119.66 45.6149 120.085 45.827 120.415 46.1572C120.816 46.558 120.981 47.0181 120.981 47.5833C120.981 49.0336 119.908 50.0001 118.494 50.0001C117.975 50.0001 117.327 49.894 116.784 49.3634C116.395 48.9864 116.159 48.4441 116.053 47.9724L116.902 47.7369C116.961 48.1494 117.15 48.503 117.374 48.7384C117.715 49.0804 118.105 49.1751 118.506 49.1751C119.579 49.1751 120.085 48.4091 120.085 47.6188C120.085 47.2652 119.979 46.9588 119.696 46.6991C119.472 46.487 119.166 46.3455 118.753 46.1572L118.046 45.827C117.739 45.6855 117.35 45.5206 116.997 45.1786C116.655 44.8484 116.454 44.4827 116.454 43.8936C116.454 42.6792 117.386 41.866 118.659 41.866C119.142 41.866 119.531 41.9603 119.92 42.2196C120.238 42.4321 120.51 42.7502 120.686 43.0921L119.991 43.5517Z" fill="#1D1D1B"/>
</svg>
