<svg width="30" height="30" viewBox="0 0 30 30" fill="none" xmlns="http://www.w3.org/2000/svg">
<path d="M24.6465 25.3536C24.8417 25.5488 25.1583 25.5488 25.3536 25.3536C25.5488 25.1583 25.5488 24.8417 25.3536 24.6465L24.6465 25.3536ZM22 13.125C22 18.0265 18.0265 22 13.125 22V23C18.5788 23 23 18.5788 23 13.125H22ZM13.125 22C8.22347 22 4.25 18.0265 4.25 13.125H3.25C3.25 18.5788 7.67119 23 13.125 23V22ZM4.25 13.125C4.25 8.22347 8.22347 4.25 13.125 4.25V3.25C7.67119 3.25 3.25 7.67119 3.25 13.125H4.25ZM13.125 4.25C18.0265 4.25 22 8.22347 22 13.125H23C23 7.67119 18.5788 3.25 13.125 3.25V4.25ZM25.3536 24.6465L20.1191 19.412L19.412 20.1191L24.6465 25.3536L25.3536 24.6465Z" fill="black"/>
</svg>
