<svg width="32" height="32" viewBox="0 0 32 32" fill="none" xmlns="http://www.w3.org/2000/svg">
<g clip-path="url(#clip0_147_1330)">
<path d="M25.5001 2.91669V3.83335M25.5001 11.1667V12.0834M21.8334 7.50002H20.9167M22.8941 4.89399L22.2459 4.24581M28.1061 4.89399L28.7543 4.24581M22.8941 10.1079L22.2459 10.7561M28.1061 10.1079L28.7543 10.7561M30.0834 7.50002H29.1667M27.7917 7.50002C27.7917 8.76567 26.7657 9.79169 25.5001 9.79169C24.2344 9.79169 23.2084 8.76567 23.2084 7.50002C23.2084 6.23437 24.2344 5.20835 25.5001 5.20835C26.7657 5.20835 27.7917 6.23437 27.7917 7.50002Z" stroke="black" stroke-linecap="round" stroke-linejoin="round"/>
</g>
<path d="M13.6667 22.713C15.3114 21.7623 17.3551 21.7623 18.9998 22.713M12.1046 19.5621C14.1874 21.6449 14.1874 25.0218 12.1046 27.1046C10.0218 29.1874 6.6449 29.1874 4.56209 27.1046C2.4793 25.0218 2.4793 21.6449 4.56209 19.5621C6.64489 17.4793 10.0218 17.4793 12.1046 19.5621ZM28.1046 19.5621C30.1874 21.6449 30.1874 25.0218 28.1046 27.1046C26.0218 29.1874 22.6449 29.1874 20.5621 27.1046C18.4793 25.0218 18.4793 21.6449 20.5621 19.5621C22.6449 17.4793 26.0218 17.4793 28.1046 19.5621Z" stroke="black" stroke-width="2" stroke-linecap="round" stroke-linejoin="round"/>
<circle cx="8.33325" cy="23.3333" r="5" fill="url(#paint0_linear_147_1330)"/>
<circle cx="8.33325" cy="23.3333" r="5" fill="url(#paint1_linear_147_1330)"/>
<circle cx="24.3333" cy="23.3333" r="5" fill="url(#paint2_linear_147_1330)"/>
<defs>
<linearGradient id="paint0_linear_147_1330" x1="8.33325" y1="18.3333" x2="8.33325" y2="28.3333" gradientUnits="userSpaceOnUse">
<stop/>
<stop offset="1" stop-color="white"/>
</linearGradient>
<linearGradient id="paint1_linear_147_1330" x1="8.33325" y1="18.3333" x2="8.33325" y2="28.3333" gradientUnits="userSpaceOnUse">
<stop/>
<stop offset="1" stop-color="white"/>
</linearGradient>
<linearGradient id="paint2_linear_147_1330" x1="24.3333" y1="18.3333" x2="24.3333" y2="28.3333" gradientUnits="userSpaceOnUse">
<stop/>
<stop offset="1" stop-color="white"/>
</linearGradient>
<clipPath id="clip0_147_1330">
<rect width="11" height="11" fill="white" transform="translate(20 2)"/>
</clipPath>
</defs>
</svg>
