<svg width="417" height="147" viewBox="0 0 417 147" fill="none" xmlns="http://www.w3.org/2000/svg">
<path d="M137 16.9998C137.67 17.1817 138.341 17.3636 139.032 17.5511C158.161 22.8417 176.408 34.6678 188.062 50.9373C190.7 55.6056 190.905 59.7711 190 64.9998C186.133 78.7823 178.335 91.2849 169 102C168.278 102.843 167.556 103.686 166.812 104.554C150.144 123.596 129.597 136.073 104.039 138.16C85.918 138.935 69.1466 130.996 55.9997 119C55.0697 118.207 55.0697 118.207 54.1208 117.398C45.6243 109.681 40.153 98.9066 36.9997 87.9998C36.702 86.9943 36.4042 85.9888 36.0974 84.9529C32.3976 70.9722 32.5033 56.3906 39.3904 43.3709C40.8242 41.1409 42.3473 39.0716 43.9997 36.9998C44.4509 36.3875 44.9021 35.7752 45.3669 35.1443C55.5663 22.0926 72.3476 16.274 88.0857 13.4451C104.599 11.5663 121.025 12.4681 137 16.9998Z" fill="#FAFCFC"/>
<path d="M341 16.0001C342.052 16.2785 343.104 16.5569 344.188 16.8438C358.935 21.2079 370.582 30.7794 378.492 43.9141C385.97 59.2178 385.312 75.1755 380 91.0001C372.884 108.73 361.078 124.035 343.438 132.313C325.651 139.504 307.424 139.856 289.563 132.625C287.696 131.777 285.841 130.904 284 130C283.224 129.62 282.448 129.24 281.649 128.848C258.56 116.732 239.928 95.9656 230 72.0001C229.567 71.0307 229.134 70.0613 228.688 69.0626C227.284 62.8105 226.782 56.4362 229.688 50.6251C230.451 49.7588 231.214 48.8926 232 48.0001C233.114 46.546 233.114 46.546 234.25 45.0626C241.23 36.9717 249.997 31.5503 259 26.0001C260.164 25.2344 260.164 25.2344 261.352 24.4532C284.53 11.736 315.763 8.96278 341 16.0001Z" fill="#FAFCFC"/>
<path d="M136.001 9.99995C136.877 10.2358 137.754 10.4717 138.657 10.7148C160.486 16.6774 182.988 27.9337 195.001 47.9999C195.661 48.3299 196.321 48.6599 197.001 48.9999C197.001 49.6599 197.001 50.3199 197.001 50.9999C197.509 50.8375 198.017 50.6751 198.54 50.5078C201.847 49.8253 205.001 49.8682 208.376 49.8749C209.662 49.8724 210.949 49.8698 212.274 49.8671C215.618 49.9863 218.722 50.3604 222.001 50.9999C222.186 50.3399 222.372 49.6799 222.563 48.9999C230.951 31.4951 252.406 20.3063 269.81 13.9785C311.619 -0.543749 354.529 -2.99746 397.813 6.87495C399.388 7.22324 399.388 7.22324 400.995 7.57856C408.26 9.35883 411.789 11.6827 416.001 17.9999C417.134 26.7267 415.146 34.5209 412.438 42.7499C412.078 43.8809 411.719 45.0118 411.348 46.1769C408.452 55.0801 404.994 63.539 401.001 71.9999C400.272 73.7092 400.272 73.7092 399.528 75.4531C392.02 92.8891 382.496 107.763 370.001 122C368.788 123.531 368.788 123.531 367.552 125.094C357.596 136.437 340.437 145.115 325.47 146.18C296.823 147.568 273.62 137.388 252.063 118.875C236.879 104.807 224.169 86.378 219.985 65.9492C219.286 62.9733 219.286 62.9733 217.266 61.5937C214.436 60.852 211.926 60.7722 209.001 60.8124C207.97 60.8189 206.938 60.8253 205.876 60.832C203.42 60.9754 201.346 61.2953 199.001 61.9999C198.805 62.8249 198.609 63.6499 198.407 64.4999C194.681 78.8904 188.294 91.3661 179.001 103C178.279 103.924 177.557 104.848 176.813 105.801C160.85 125.838 139.666 141.441 114.001 146C88.9085 147.625 69.0235 141.804 49.9032 125.176C43.8438 119.43 38.9347 112.704 34.0009 106C33.4556 105.285 32.9103 104.569 32.3485 103.832C27.1557 96.6253 23.7668 88.3109 20.0702 80.2753C19.037 78.0768 17.955 75.9105 16.8524 73.746C15.3475 70.7633 14.091 67.7882 13.0009 64.6249C11.7955 61.1487 10.4851 57.7462 9.07898 54.3476C6.90205 48.9335 5.27351 43.4408 3.75086 37.8124C3.34867 36.3942 3.34867 36.3942 2.93836 34.9472C1.22632 28.68 -0.104952 23.1331 2.12586 16.8124C6.11166 10.8337 11.9932 9.08324 18.6259 7.43745C19.8585 7.12276 19.8585 7.12276 21.1161 6.80171C59.2087 -2.55564 98.3901 -0.384348 136.001 9.99995ZM67.0009 19.9999C66.0237 20.4318 65.0466 20.8636 64.0399 21.3085C51.1492 27.2993 41.6758 36.346 36.6259 49.8124C31.1013 66.074 34.112 83.1706 40.8251 98.6445C49.523 116.069 64.0295 128.108 82.0594 135.07C86.9832 136.627 91.8701 137.481 97.0009 138C97.7124 138.072 98.424 138.144 99.1571 138.219C123.223 139.329 143.846 126.583 161.11 111.109C174.335 98.5197 189.12 78.6651 190.688 59.9374C190.381 53.6577 186.993 49.6117 183.001 44.9999C182.287 44.1749 181.573 43.3499 180.837 42.4999C164.084 24.5703 139.25 14.4272 114.926 12.7934C111.698 12.6971 108.48 12.6712 105.251 12.6874C104.111 12.6916 102.971 12.6958 101.796 12.7001C89.4549 12.865 78.2533 14.7309 67.0009 19.9999ZM239.001 40.9999C238.135 41.8456 237.268 42.6912 236.376 43.5624C230.269 49.83 227.572 53.6693 227.657 62.5781C229.058 76.5254 238.046 89.6822 247.001 99.9999C247.849 100.982 248.697 101.964 249.571 102.977C255.505 109.714 261.801 115.594 269.001 121C269.715 121.541 270.429 122.083 271.165 122.641C287.647 134.369 307.765 140.099 327.876 137.312C344.152 134.295 359.125 124.76 368.899 111.406C370.709 108.656 372.374 105.862 374.001 103C374.537 102.098 375.073 101.195 375.626 100.266C383.66 85.724 386.334 68.6832 381.976 52.6296C377.722 38.7921 367.023 27.4782 354.524 20.5703C318.14 4.35446 266.778 11.5858 239.001 40.9999Z" fill="#050908"/>
</svg>
