<svg width="426" height="117" viewBox="0 0 426 117" fill="none" xmlns="http://www.w3.org/2000/svg">
<path d="M264.89 17.846C266.689 17.8275 266.689 17.8275 268.523 17.8086C272.47 17.7761 276.416 17.7568 280.363 17.7445C281.379 17.7406 281.379 17.7406 282.416 17.7366C305.773 17.658 328.953 18.6944 352.238 20.4945C353.323 20.5779 353.323 20.5779 354.43 20.6631C367.632 21.6834 380.83 22.7829 394 24.1585C394.689 24.227 395.378 24.2955 396.088 24.3661C400.086 24.8114 403.656 25.7223 407.426 27.1195C407.664 36.1763 407.033 45.1335 406.309 54.1531C406.114 56.6139 405.934 59.0755 405.756 61.5374C404.735 74.841 403.139 85.536 394.426 96.1195C393.563 97.1868 393.563 97.1868 392.683 98.2757C386.342 105.352 376.847 110.64 367.426 112.119C365.266 112.211 363.103 112.25 360.941 112.252C359.633 112.254 358.325 112.256 356.977 112.259C355.543 112.255 354.109 112.25 352.676 112.244C351.58 112.242 351.58 112.242 350.462 112.24C338.387 112.21 326.313 112.053 314.24 111.8C312.465 111.763 310.69 111.729 308.915 111.698C290.989 111.372 276.401 110.464 262.75 97.5843C259.123 93.7386 256.237 89.581 253.426 85.1195C253.014 84.5484 252.603 83.9773 252.179 83.389C249.219 78.9965 248.723 74.5777 248.058 69.3929C247.128 62.5831 245.593 55.8659 244.189 49.1414C242.104 38.9826 241.306 29.4855 241.426 19.1195C249.257 18.2873 257.018 17.9225 264.89 17.846Z" fill="#FAFCFC"/>
<path d="M146.362 17.0691C148.586 17.1238 150.811 17.1649 153.036 17.2033C157.687 17.2837 162.338 17.3854 166.988 17.4948C168.066 17.5173 168.066 17.5173 169.166 17.5403C171.171 17.5852 173.175 17.6451 175.18 17.7058C176.886 17.7529 176.886 17.7529 178.627 17.801C181.426 18.1198 181.426 18.1198 184.426 20.1198C184.124 28.8146 183.03 37.2444 181.551 45.8073C181.389 46.7562 181.228 47.705 181.062 48.6826C180.032 54.4654 178.689 60.064 177.02 65.6962C176.453 68.0099 176.287 69.9976 176.301 72.3698C175.316 83.5457 164.507 95.9416 156.348 102.889C145.793 110.692 132.996 110.624 120.41 110.772C118.784 110.799 117.158 110.827 115.532 110.855C112.14 110.911 108.748 110.956 105.356 110.993C101.055 111.042 96.755 111.123 92.4545 111.213C89.0999 111.278 85.7452 111.324 82.3902 111.364C80.8069 111.386 79.2235 111.414 77.6404 111.449C58.9347 111.846 44.958 108.342 31.0508 95.1823C22.277 86.0922 20.325 76.1819 19.5743 63.8894C19.4786 62.4592 19.4786 62.4592 19.381 61.0001C19.1808 57.9779 18.9909 54.9552 18.8008 51.9323C18.666 49.8913 18.5306 47.8503 18.3946 45.8093C18.2664 43.8568 18.1388 41.9044 18.0118 39.9519C17.9524 39.0403 17.8931 38.1288 17.8319 37.1896C17.2686 28.2087 17.2686 28.2087 17.4258 25.1198C19.1288 23.4168 21.405 23.6902 23.74 23.4428C24.8796 23.3219 26.0191 23.2009 27.1932 23.0763C28.4443 22.9502 29.6954 22.824 30.9844 22.694C32.9327 22.4959 32.9327 22.4959 34.9203 22.2938C49.7507 20.8159 64.6134 19.8309 79.4883 18.9323C80.9222 18.8446 82.356 18.7568 83.7898 18.6691C104.663 17.4003 125.447 16.5143 146.362 17.0691Z" fill="#FAFCFC"/>
<path d="M89.4218 0.0800148C119.204 -0.299419 148.804 0.640791 178.455 3.54059C191.087 4.77073 203.606 5.4184 216.301 5.43219C217.02 5.43559 217.738 5.439 218.479 5.4425C227.638 5.46756 236.616 4.88027 245.72 3.89689C255.25 2.88352 264.791 2.4072 274.363 1.99469C275.318 1.95299 276.274 1.9113 277.258 1.86834C307.452 0.575946 337.523 1.11138 367.724 1.93202C370.022 1.99392 372.321 2.05375 374.619 2.11322C402.629 2.84791 402.629 2.84791 414.824 3.8775C415.578 3.92655 416.331 3.97561 417.107 4.02615C420.622 4.38287 422.1 4.7249 424.39 7.49786C425.695 10.8007 425.62 13.1545 425.301 16.6822C425.216 17.7972 425.131 18.9123 425.043 20.0611C424.038 25.041 424.038 25.041 421.426 27.1197C419.261 27.2757 419.261 27.2757 416.8 27.2195C415.574 27.1979 415.574 27.1979 414.324 27.1759C413.384 27.1481 413.384 27.1481 412.426 27.1197C412.351 28.3793 412.275 29.6388 412.198 30.9366C411.912 35.6749 411.613 40.4123 411.309 45.1495C411.18 47.1876 411.055 49.2261 410.934 51.2647C409.722 71.5831 408.396 90.5034 392.426 105.12C388.916 107.813 385.38 110.135 381.426 112.12C380.767 112.475 380.109 112.83 379.43 113.196C369.388 117.777 358.142 116.589 347.363 116.432C345.171 116.414 342.979 116.397 340.787 116.381C334.333 116.326 327.88 116.227 321.426 116.12C319.599 116.092 317.772 116.064 315.945 116.036C311.251 115.961 306.557 115.859 301.863 115.745C301.17 115.73 300.477 115.715 299.763 115.699C292.694 115.535 286.192 115.238 279.426 113.12C278.551 112.848 277.675 112.576 276.773 112.295C260.674 106.213 251.431 93.1925 244.426 78.1197C244.426 77.4597 244.426 76.7997 244.426 76.1197C243.661 75.925 242.897 75.7304 242.109 75.5298C236.907 72.796 235.892 66.1354 234.209 60.7935C230.692 48.7909 227.911 36.5313 225.864 24.1951C225.627 22.1391 225.627 22.1391 224.426 21.1197C222.574 20.9618 220.717 20.8686 218.859 20.8033C217.735 20.7614 216.61 20.7195 215.451 20.6763C214.267 20.637 213.083 20.5977 211.863 20.5572C210.675 20.514 209.488 20.4708 208.264 20.4263C205.318 20.3199 202.372 20.2178 199.426 20.1197C199.316 21.3456 199.207 22.5715 199.094 23.8345C198.417 29.8831 197.107 35.7574 195.738 41.6822C195.474 42.8252 195.21 43.9682 194.938 45.1458C189.622 67.4331 189.622 67.4331 183.426 76.1197C182.096 76.7934 180.763 77.4605 179.426 78.1197C178.182 80.1054 178.182 80.1054 177.238 82.4947C171.609 94.4071 162.66 105.498 150.641 111.331C143.536 113.862 137.029 114.445 129.543 114.534C128.502 114.553 127.462 114.573 126.39 114.593C123.027 114.653 119.664 114.7 116.301 114.745C113.99 114.781 111.679 114.818 109.368 114.855C103.731 114.943 98.095 115.016 92.4583 115.083C89.7155 115.116 86.9727 115.153 84.23 115.19C80.0661 115.246 75.9025 115.281 71.7383 115.307C70.5735 115.32 69.4086 115.333 68.2085 115.347C53.1538 115.363 39.8215 110.017 28.4258 100.12C15.6674 87.1721 15.2376 68.4173 14.3633 51.3697C14.2467 49.1786 14.1281 46.9877 14.0065 44.7969C13.8974 42.8204 13.7941 40.8436 13.6912 38.8668C13.6727 32.0284 13.6727 32.0285 11.4258 26.1197C10.312 25.9753 9.19828 25.8309 8.05078 25.6822C4.42578 25.1197 4.42578 25.1197 1.42578 23.1197C0.108458 19.7378 0.190958 16.1508 0.113281 12.5572C0.0758984 11.4215 0.0385156 10.2859 0 9.11578C0.425781 6.11969 0.425781 6.11969 2.00781 4.27984C7.39282 1.69608 13.7992 1.88576 19.6914 1.59234C20.9111 1.53036 20.9111 1.53036 22.1553 1.46711C33.8214 0.914554 45.4993 0.747783 57.1758 0.557188C58.404 0.536673 59.6322 0.516159 60.8976 0.495023C70.4055 0.338313 79.9135 0.205924 89.4218 0.0800148ZM81.627 18.8013C80.2175 18.8876 78.808 18.9733 77.3984 19.0584C61.901 19.9948 46.4313 21.1232 30.9844 22.6939C29.7333 22.8201 28.4822 22.9462 27.1931 23.0762C26.0536 23.1971 24.9141 23.3181 23.74 23.4427C22.2315 23.6025 22.2315 23.6025 20.6926 23.7655C18.4633 23.8857 18.4633 23.8857 17.4258 25.1197C17.4559 27.7485 17.5512 30.344 17.6953 32.9673C17.7364 33.7714 17.7774 34.5755 17.8197 35.404C17.9089 37.12 18.0007 38.8358 18.095 40.5516C18.2348 43.1189 18.3632 45.6865 18.4902 48.2545C19.9137 77.0243 19.9137 77.0243 36.3008 99.8072C49.1415 110.586 63.5265 111.601 79.6797 111.299C81.3139 111.279 82.9481 111.259 84.5823 111.241C87.9853 111.199 91.388 111.145 94.7908 111.084C99.1196 111.006 103.448 110.955 107.777 110.913C111.145 110.877 114.512 110.827 117.88 110.773C119.475 110.749 121.07 110.729 122.665 110.714C137.233 110.557 149.241 109.251 160.426 99.1197C163.422 95.9806 165.965 92.691 168.426 89.1197C169.078 88.1916 169.73 87.2634 170.402 86.3072C174.586 79.833 176.205 74.4278 176.973 66.7955C177.451 62.912 178.338 59.3316 179.363 55.5572C181.088 49.0915 182.233 42.6184 183.176 35.9947C183.367 34.6614 183.367 34.6614 183.562 33.3011C184.524 26.7269 184.524 26.7269 184.426 20.1197C180.917 17.7807 179.342 17.8206 175.18 17.7056C173.889 17.6666 172.598 17.6275 171.268 17.5872C169.841 17.5553 168.415 17.5245 166.988 17.4947C166.251 17.4773 165.513 17.46 164.754 17.4421C160.064 17.332 155.375 17.2436 150.685 17.1626C148.586 17.1227 146.488 17.0723 144.39 17.0167C123.416 16.496 102.555 17.5203 81.627 18.8013ZM241.426 19.1197C241.223 27.6515 241.863 35.6993 243.238 44.1197C243.404 45.2051 243.57 46.2905 243.74 47.4087C244.765 53.8926 246.112 60.1954 247.834 66.5306C248.38 68.9194 248.565 70.9923 248.551 73.4322C249.447 83.2719 258.115 93.7902 265.102 100.253C276.053 109.05 287.293 111.13 300.98 111.436C301.788 111.457 302.595 111.478 303.426 111.5C306.051 111.566 308.676 111.625 311.301 111.682C312.2 111.702 313.099 111.723 314.026 111.743C320.492 111.886 326.959 112.007 333.426 112.12C334.277 112.135 335.129 112.151 336.007 112.167C340.735 112.251 345.463 112.316 350.192 112.351C351.621 112.363 353.051 112.381 354.48 112.403C369.616 112.631 380.963 109.431 392.176 98.9322C400.992 89.6635 404.337 79.1082 405.277 66.6314C405.341 65.8476 405.405 65.0637 405.471 64.2561C405.603 62.6084 405.732 60.9605 405.858 59.3123C406.05 56.8235 406.252 54.3359 406.457 51.8482C407.119 43.5937 407.655 35.4082 407.426 27.1197C396.646 22.8225 383.902 23.1217 372.426 22.1197C370.999 21.9928 370.999 21.9928 369.543 21.8633C340.028 19.2497 310.671 17.7387 281.051 17.8072C280.367 17.8084 279.683 17.8096 278.978 17.8108C274.411 17.82 269.844 17.8455 265.277 17.8814C263.567 17.8928 263.567 17.8928 261.822 17.9043C254.978 17.9846 248.231 18.3872 241.426 19.1197Z" fill="#060A09"/>
<path d="M4.42578 24.1196C5.86318 24.0925 7.30072 24.0732 8.73828 24.0571C9.93904 24.0397 9.93904 24.0397 11.1641 24.022C13.4258 24.1196 13.4258 24.1196 16.4258 25.1196C19.0551 29.6257 18.8944 34.6984 19.1367 39.7759C19.2483 41.7056 19.3603 43.6353 19.4727 45.5649C19.6387 48.5813 19.7997 51.5977 19.9521 54.6147C20.3371 75.1626 20.3371 75.1626 29.8008 92.6196C30.988 93.8165 30.988 93.8165 32.1992 95.0376C32.934 95.7247 33.6688 96.4117 34.4258 97.1196C34.9543 97.6314 35.4828 98.1431 36.0273 98.6704C49.22 110.573 64.6525 110.388 81.3867 110.159C88.1134 110.077 94.7301 110.449 101.426 111.12C101.426 111.45 101.426 111.78 101.426 112.12C97.4658 112.12 93.5058 112.12 89.4258 112.12C89.4258 113.11 89.4258 114.1 89.4258 115.12C85.2998 115.169 81.174 115.206 77.0479 115.229C75.6474 115.239 74.247 115.253 72.8467 115.271C55.7778 115.477 41.5946 111.557 28.4258 100.12C15.6674 87.172 15.2376 68.4173 14.3633 51.3696C14.2467 49.1786 14.1281 46.9876 14.0065 44.7968C13.8974 42.8203 13.7941 40.8435 13.6912 38.8667C13.6727 32.0284 13.6727 32.0284 11.4258 26.1196C9.0976 25.752 6.76394 25.4172 4.42578 25.1196C4.42578 24.7896 4.42578 24.4596 4.42578 24.1196Z" fill="#0C100F"/>
<path d="M4.42578 24.1196C5.86318 24.0925 7.30072 24.0732 8.73828 24.0571C9.93904 24.0397 9.93904 24.0397 11.1641 24.022C13.4258 24.1196 13.4258 24.1196 16.4258 25.1196C16.0958 28.4196 15.7658 31.7196 15.4258 35.1196C14.7658 35.1196 14.1058 35.1196 13.4258 35.1196C13.1979 33.0688 12.9701 31.0181 12.7422 28.9673C12.6069 27.1082 12.6069 27.1082 11.4258 26.1196C9.0976 25.752 6.76394 25.4172 4.42578 25.1196C4.42578 24.7896 4.42578 24.4596 4.42578 24.1196Z" fill="#272928"/>
</svg>
