<svg width="437" height="179" viewBox="0 0 437 179" fill="none" xmlns="http://www.w3.org/2000/svg">
<path d="M373.188 27.8125C374.809 29.188 376.414 30.5839 378 32C378.761 32.6664 379.521 33.3329 380.305 34.0195C394.432 47.1941 403.308 65.7436 404.32 85C405.027 107.202 398.907 125.556 383.836 142.066C369.323 157.325 351.135 165.296 330.141 165.992C307.603 166.278 288.956 157.552 272.824 141.91C258.587 127.548 252.274 109.865 251.625 89.9375C252.314 68.0706 260.845 48.7022 276.475 33.4004C302.471 9.5346 344.882 5.94194 373.188 27.8125Z" fill="#FAFCFC"/>
<path d="M151.708 26.8792C170.098 40.8628 180.663 60.378 183.758 82.9906C186.181 103.017 179.079 122.234 167.001 138C153.953 153.805 136.825 163.26 116.338 165.67C95.6784 167.441 76.3663 161.876 60.2117 148.731C57.7459 146.544 55.3662 144.294 53.0008 142C52.3769 141.45 51.753 140.899 51.1102 140.332C39.6498 129.879 32.7729 113.298 31.878 97.8853C31.063 74.0036 36.6015 54.1439 53.1824 36.3699C61.8687 27.388 72.0724 20.8949 84.0008 17.0003C84.8181 16.7025 85.6353 16.4048 86.4774 16.098C108.337 9.2629 133.217 14.0452 151.708 26.8792Z" fill="#FAFCFC"/>
<path d="M131 4.00001C132 4.22817 133.001 4.45634 134.031 4.69141C153.595 9.49997 170.08 23.4165 181 40C194 61.5852 194 61.5852 194 69C194.946 68.7834 195.892 68.5669 196.867 68.3438C212.124 65.0521 226.653 65.2366 242 68C242.436 66.8167 242.871 65.6333 243.32 64.4141C252.787 39.1132 268.329 19.94 292.862 7.91505C296.65 6.29392 300.572 5.30293 304.562 4.31251C305.374 4.10046 306.185 3.88841 307.021 3.66993C322.326 -0.245704 336.749 0.162323 352 4.00001C353.101 4.26684 354.202 4.53368 355.336 4.8086C375.937 10.4202 392.112 24.9441 403.234 42.8555C405.924 47.6449 408.183 52.6053 410.422 57.6172C412.851 63.4271 412.851 63.4271 417.5 67.1875C421.48 68.1114 425.468 68.7637 429.512 69.3399C432.389 70.1033 433.228 70.6365 435 73C435.464 75.7874 435.464 75.7874 435.582 79.1289C435.626 80.3284 435.671 81.5279 435.717 82.7637C435.748 84.0173 435.78 85.2709 435.812 86.5625C435.863 87.82 435.914 89.0775 435.967 90.3731C436.186 97.2912 436.186 97.2912 436 100C433.181 102.819 429.798 103.416 426.062 104.5C420.286 106.164 420.286 106.164 415 109C414.076 111.529 414.076 111.529 413.375 114.563C409.673 127.306 402.991 139.239 394 149C393.179 149.913 392.358 150.825 391.512 151.766C376.179 168.008 355.251 177.058 333.062 178.203C319.536 178.461 306.298 177.029 294 171C292.839 170.433 291.677 169.866 290.48 169.281C270.164 159.045 253.424 144.02 245.008 122.449C243.436 117.071 242.446 111.567 241.606 106.029C240.449 99.1439 238.275 95.374 232.5 91.1875C225.556 87.8891 216.446 87.8419 209.105 89.7539C204.606 91.4739 200.185 93.3171 197 97C196.155 100.032 195.556 102.914 195 106C191.353 122.954 184.264 136.844 173 150C172.377 150.736 171.755 151.472 171.113 152.23C156.507 168.104 134.28 177.109 113.062 178.203C88.2369 178.677 66.9488 171.135 48 155C46.7934 154.097 46.7934 154.097 45.5625 153.176C32.3158 141.928 25.679 126.255 21 110C20.67 109.01 20.34 108.02 20 107C18.209 106.077 18.209 106.077 16 105.5C14.7934 105.133 14.7934 105.133 13.5625 104.758C12.2941 104.383 12.2941 104.383 11 104C9.33096 103.466 7.66414 102.924 6 102.375C5.2575 102.135 4.515 101.895 3.75 101.648C2 101 2 101 1 100C0.90023 98.1089 0.869193 96.2141 0.867188 94.3203C0.865898 93.164 0.864609 92.0077 0.863281 90.8164C0.867148 89.5983 0.871016 88.3801 0.875 87.125C0.871133 85.9146 0.867266 84.7041 0.863281 83.457C0.86457 82.2982 0.865859 81.1393 0.867188 79.9453C0.868315 78.8781 0.869443 77.811 0.870605 76.7114C1 74 1 74 2 71C3.81006 70.3875 3.81006 70.3875 6.14844 70.043C6.98891 69.8992 7.82938 69.7555 8.69531 69.6074C10.4724 69.3289 12.2511 69.0606 14.0312 68.8027C19.3741 67.9658 19.3741 67.9658 23.0039 64.1719C23.3326 63.1252 23.6613 62.0784 24 61C24.2694 60.1866 24.5388 59.3732 24.8164 58.5352C25.0626 57.7192 25.3088 56.9032 25.5625 56.0625C32.8567 35.6277 50.8573 18.8555 69.7251 9.03419C89.3006 0.135065 110.355 -1.04492 131 4.00001ZM54 36C53.3774 36.5504 52.7548 37.1009 52.1133 37.668C39.2314 49.3919 32.5824 67.463 31.7461 84.5352C31.1221 103.908 34.8226 122.609 48.3125 137.312C50.1737 139.249 52.0774 141.123 54 143C54.8044 143.813 55.6087 144.627 56.4375 145.465C71.7435 160.192 91.2342 166.326 112.223 165.961C133.399 164.811 151.104 155.497 165.344 140.137C177.663 126.066 184.866 106.961 184.285 88.2266C182.298 65.7416 173.242 45.0592 156 30C124.783 5.80517 81.9809 8.42246 54 36ZM271.312 38.8125C258.129 54.1084 251.299 72.4345 251.754 92.7109C253.308 113.475 260.661 130.59 275.902 145.195C279.709 148.471 283.807 151.247 288 154C288.951 154.679 288.951 154.679 289.922 155.371C306.187 166.527 326.934 167.586 345.777 164.352C366.212 159.677 382.895 146.628 394 129C404.304 110.853 407.319 89.7612 402.168 69.3984C394.841 48.0795 380.712 30.8916 361 20C330.078 5.73142 294.124 14.5444 271.312 38.8125Z" fill="#050908"/>
</svg>
