<svg width="394" height="134" viewBox="0 0 394 134" fill="none" xmlns="http://www.w3.org/2000/svg">
<path d="M300.986 133.936C292.128 134.138 283.496 133.552 274.867 133.076C270.194 132.818 265.511 132.31 260.921 131.331C253.788 129.811 248.452 125.434 243.806 120.07C232.103 106.555 224.134 90.774 216.557 74.7596C216.033 73.6515 215.468 72.5174 215.217 71.3324C214.228 66.6556 211.157 64.4029 206.665 64.3332C199.796 64.2265 192.906 63.7638 186.051 64.6242C181.896 65.1457 179.98 67.6403 180.436 71.7238C180.6 73.1992 180.218 74.5757 179.615 75.898C175.841 84.1707 172.094 92.5473 166.773 99.8828C161.298 107.431 156.452 115.481 150.145 122.402C144.461 128.642 137.531 132.138 128.914 132.849C115.176 133.983 101.433 134.19 87.6902 133.854C77.922 133.615 68.1076 133.41 58.4454 131.552C55.8252 131.048 53.5528 129.844 51.627 128.043C45.0934 121.933 38.9722 115.424 33.1712 108.612C30.5183 105.497 27.7114 102.49 25.5266 99.0137C22.1397 93.6245 21.0628 87.4351 20.0381 81.3261C18.6862 73.2663 17.8304 65.1239 16.6437 57.0345C16.005 52.6806 14.5381 51.5322 10.1045 51.3395C8.26825 51.2597 6.42717 51.1947 4.60082 51.0027C1.72185 50.7001 0.764979 49.8025 0.407267 46.9501C0.0683863 44.2479 -0.225692 41.5452 0.24444 38.7962C0.46729 37.4931 1.05403 36.8333 2.24308 36.5751C9.25337 35.0528 15.4385 31.4991 21.8515 28.516C22.6194 28.1588 23.2372 27.4236 23.8492 26.7904C30.4972 19.912 37.6271 13.5686 44.9265 7.39863C48.9994 3.95596 53.7229 2.30033 58.8639 1.55717C64.6674 0.718215 70.4994 0.136646 76.365 0.10077C85.7696 0.0432431 95.1792 -0.101226 104.578 0.129934C112.951 0.335849 121.287 1.26824 129.571 2.56572C136.175 3.59996 141.553 6.79271 145.986 11.76C150.89 17.2553 155.92 22.6374 160.799 28.1544C165.274 33.2141 169.503 38.4802 173.255 44.114C174.239 45.5912 175.23 47.0583 176.498 48.3196C179.259 51.0642 182.662 51.1926 186.215 50.8011C193.41 50.0082 200.617 49.9737 207.798 50.8438C212.527 51.4169 216.218 50.2955 219.105 46.1473C227.273 34.4138 236.652 23.667 246.47 13.3041C248.727 10.9221 251.188 8.76262 253.793 6.76912C258.564 3.1191 264.242 2.23576 269.943 1.59633C290.883 -0.752017 311.831 -0.304047 332.774 1.60899C339.834 2.25389 345.732 5.23735 350.958 10.0354C357.24 15.8031 363.561 21.5194 369.589 27.561C372.797 30.7765 377.142 31.82 381.289 33.1238C384.988 34.287 388.519 35.9732 392.367 36.6761C393.557 36.8935 393.769 37.9675 393.838 38.8901C394.074 42.0973 394.133 45.3119 393.447 48.4855C393.039 50.3758 391.758 51.1847 389.922 51.2914C387.408 51.4373 384.879 51.3335 382.384 51.7912C378.831 52.4432 377.268 54.0486 376.908 57.6233C376.504 61.6312 376.106 65.6427 375.85 69.6619C375.34 77.6859 373.569 85.46 371.386 93.1561C370.825 95.1355 369.943 97.0095 368.803 98.7167C361.603 109.503 353.084 119.144 343.564 127.918C340.557 130.689 336.887 131.915 332.978 132.267C322.406 133.219 311.811 133.855 300.986 133.936ZM119.63 8.70161C113.857 8.29898 108.09 7.70485 102.311 7.53758C93.1179 7.27147 83.9158 7.37135 74.7316 7.95152C69.773 8.26476 64.8052 8.5163 59.883 9.2821C56.1714 9.85954 52.7726 11.1228 49.9025 13.6243C43.7758 18.9644 37.9971 24.6639 32.4888 30.6406C31.9985 31.1725 31.3939 31.6838 31.4822 32.5821C32.4345 33.1159 33.3419 32.6351 34.2447 32.4846C38.1522 31.8335 41.013 33.1087 43.06 36.4802C43.9855 38.0046 44.6361 39.655 45.129 41.368C47.8286 50.751 49.2584 60.4478 52.1025 69.7945C52.7582 71.9492 53.5354 74.0603 53.2887 76.3904C53.0526 78.6197 51.4438 80.825 49.824 80.967C48.3132 81.0995 47.0212 79.7165 46.353 77.2465C46.264 76.9175 46.1805 76.5862 46.113 76.2522C44.7083 69.301 43.367 62.3362 41.882 55.4024C40.9254 50.9356 39.8239 46.4968 38.6592 42.0795C38.0548 39.7871 37.1936 39.3846 34.8854 39.7913C32.5151 40.2089 30.3033 41.072 28.17 42.1625C27.1358 42.6912 26.4655 43.4708 26.2902 44.6693C25.725 48.5333 25.5277 52.4346 25.565 56.3194C25.644 64.5323 26.5478 72.6628 28.337 80.7024C29.7177 86.9065 31.8215 92.7039 35.5762 97.929C40.2106 104.378 45.4785 110.251 50.7545 116.156C54.9035 120.799 59.8241 123.564 65.8362 124.858C74.1307 126.643 82.5473 127.19 90.9634 127.492C102.872 127.918 114.776 127.546 126.613 125.922C133.048 125.038 138.893 123.116 143.327 117.913C147.449 113.075 151.362 108.088 155.01 102.89C156.379 100.939 157.638 98.9292 158.251 96.5433C159.373 92.1773 160.614 87.8413 161.861 83.5089C163.885 76.475 165.844 69.4017 171.356 64.0755C171.777 63.6686 171.713 63.0648 171.738 62.5197C171.972 57.5536 170.602 53.0979 167.665 49.078C163.111 42.8445 158.237 36.8734 153.194 31.0385C148.998 26.1841 144.756 21.3707 140.093 16.9536C136.632 13.6742 132.816 11.0034 128.086 9.85085C125.421 9.20158 122.692 9.11702 119.63 8.70161ZM291.326 7.46709C283.215 7.62201 275.151 8.33721 267.137 9.59758C263.703 10.1378 260.669 11.592 257.925 13.7473C253.668 17.0919 249.951 20.9958 246.308 24.9665C239.434 32.4587 232.679 40.0582 226.594 48.2262C224.4 51.1704 222.676 54.3826 222.371 58.0751C222.13 60.9884 221.102 64.0294 224.968 66.1005C227.795 67.6152 228.868 71.1093 229.827 74.1919C231.551 79.732 233.091 85.3292 234.766 90.8849C236.021 95.049 237.03 99.2796 239.812 102.857C243.924 108.143 248.337 113.15 252.915 118.02C256.328 121.649 260.383 124.083 265.36 124.945C272.134 126.118 278.936 127.027 285.811 127.145C295.138 127.304 304.464 127.432 313.79 126.803C319.981 126.385 326.109 125.677 332.141 124.237C335.213 123.503 338.076 122.297 340.502 120.147C347.25 114.17 352.561 106.99 357.659 99.6331C360.584 95.4134 363.381 91.111 364.219 85.8862C364.911 81.5723 365.675 77.2659 366.213 72.9319C367.384 63.4973 368.037 54.0332 367.263 44.5209C367.184 43.5587 367.184 42.5559 366.282 41.9444C364.083 40.4536 361.923 38.8736 359.432 37.8999C357.453 37.1265 356.708 37.5249 356.152 39.6059C354.565 45.5429 353.26 51.543 352.164 57.5922C351.155 63.1644 350.543 68.8141 349.017 74.2864C348.462 76.2747 347.414 77.7287 345.075 77.7771C342.734 77.8254 341.699 76.3424 340.946 74.4586C340.162 72.496 339.846 70.5146 340.717 68.4865C344.699 59.213 346.53 49.3007 349.223 39.6444C349.736 37.8032 350.171 35.9378 351.053 34.2223C352.24 31.9104 354.084 30.6087 356.708 30.4405C357.558 30.3861 358.507 30.6179 359.225 29.775C359.293 28.9353 358.696 28.4456 358.169 27.9286C355.197 25.0175 352.222 22.1104 349.247 19.2038C343.891 13.9722 338.158 9.71055 330.23 9.05066C317.407 7.9834 304.613 6.65877 291.326 7.46709Z" fill="black"/>
</svg>
