<svg width="32" height="32" viewBox="0 0 32 32" fill="none" xmlns="http://www.w3.org/2000/svg">
<path d="M13.3334 15.3796C14.9781 14.429 17.0219 14.429 18.6666 15.3796M11.7713 12.2288C13.8541 14.3116 13.8541 17.6885 11.7713 19.7713C9.68853 21.8541 6.31165 21.8541 4.22884 19.7713C2.14605 17.6885 2.14605 14.3116 4.22884 12.2288C6.31163 10.146 9.68852 10.146 11.7713 12.2288ZM27.7713 12.2288C29.8541 14.3116 29.8541 17.6885 27.7713 19.7713C25.6885 21.8541 22.3116 21.8541 20.2288 19.7713C18.1461 17.6885 18.1461 14.3116 20.2288 12.2288C22.3116 10.146 25.6885 10.146 27.7713 12.2288Z" stroke="black" stroke-width="2" stroke-linecap="round" stroke-linejoin="round"/>
<line x1="5" y1="16.5" x2="11" y2="16.5" stroke="black"/>
<line x1="21" y1="16.5" x2="27" y2="16.5" stroke="black"/>
</svg>
