<svg width="32" height="32" viewBox="0 0 32 32" fill="none" xmlns="http://www.w3.org/2000/svg">
<path d="M13.6667 22.713C15.3114 21.7623 17.3551 21.7623 18.9998 22.713M12.1046 19.5621C14.1874 21.6449 14.1874 25.0218 12.1046 27.1046C10.0218 29.1874 6.6449 29.1874 4.56209 27.1046C2.4793 25.0218 2.4793 21.6449 4.56209 19.5621C6.64489 17.4793 10.0218 17.4793 12.1046 19.5621ZM28.1046 19.5621C30.1874 21.6449 30.1874 25.0218 28.1046 27.1046C26.0218 29.1874 22.6449 29.1874 20.5621 27.1046C18.4793 25.0218 18.4793 21.6449 20.5621 19.5621C22.6449 17.4793 26.0218 17.4793 28.1046 19.5621Z" stroke="black" stroke-width="2" stroke-linecap="round" stroke-linejoin="round"/>
<path d="M8.33301 28.333C11.0944 28.333 13.333 26.0944 13.333 23.333C13.333 20.5716 11.0944 18.333 8.33301 18.333C5.57158 18.333 3.33301 20.5716 3.33301 23.333C3.33301 26.0944 5.57158 28.333 8.33301 28.333Z" fill="url(#paint0_linear_2130_1516)"/>
<path d="M8.33301 28.333C11.0944 28.333 13.333 26.0944 13.333 23.333C13.333 20.5716 11.0944 18.333 8.33301 18.333C5.57158 18.333 3.33301 20.5716 3.33301 23.333C3.33301 26.0944 5.57158 28.333 8.33301 28.333Z" fill="url(#paint1_linear_2130_1516)"/>
<path d="M24.333 28.333C27.0944 28.333 29.333 26.0944 29.333 23.333C29.333 20.5716 27.0944 18.333 24.333 18.333C21.5716 18.333 19.333 20.5716 19.333 23.333C19.333 26.0944 21.5716 28.333 24.333 28.333Z" fill="url(#paint2_linear_2130_1516)"/>
<path d="M27.0703 6.08984L25.6561 7.50406L27.0703 8.91827" stroke="black" stroke-linecap="round" stroke-linejoin="round"/>
<path d="M29.8987 7.50413H25.656" stroke="black" stroke-linecap="round" stroke-linejoin="round"/>
<path d="M18.8281 6.08984L20.2423 7.50406L18.8281 8.91827" stroke="black" stroke-linecap="round" stroke-linejoin="round"/>
<path d="M15.9998 7.50413H20.2424" stroke="black" stroke-linecap="round" stroke-linejoin="round"/>
<path d="M22.9512 2.25C23.0259 2.25 23.1582 2.30844 23.3252 2.56738C23.485 2.81522 23.638 3.1908 23.7705 3.67676C24.0346 4.6451 24.2012 5.99688 24.2012 7.5C24.2012 9.00312 24.0346 10.3549 23.7705 11.3232C23.638 11.8092 23.485 12.1848 23.3252 12.4326C23.1582 12.6916 23.0259 12.75 22.9512 12.75C22.8765 12.75 22.7441 12.6916 22.5771 12.4326C22.4173 12.1848 22.2644 11.8092 22.1318 11.3232C21.8677 10.3549 21.7012 9.00312 21.7012 7.5C21.7012 5.99688 21.8677 4.6451 22.1318 3.67676C22.2644 3.1908 22.4173 2.81522 22.5771 2.56738C22.7441 2.30844 22.8765 2.25 22.9512 2.25Z" fill="#D9D9D9" stroke="black" stroke-width="0.5"/>
<defs>
<linearGradient id="paint0_linear_2130_1516" x1="8.33301" y1="18.333" x2="8.33301" y2="28.333" gradientUnits="userSpaceOnUse">
<stop/>
<stop offset="1" stop-color="white"/>
</linearGradient>
<linearGradient id="paint1_linear_2130_1516" x1="8.33301" y1="18.333" x2="8.33301" y2="28.333" gradientUnits="userSpaceOnUse">
<stop stop-color="#B1B1B1"/>
<stop offset="1" stop-color="white"/>
</linearGradient>
<linearGradient id="paint2_linear_2130_1516" x1="24.333" y1="18.333" x2="24.333" y2="28.333" gradientUnits="userSpaceOnUse">
<stop stop-color="#B1B1B1"/>
<stop offset="1" stop-color="white"/>
</linearGradient>
</defs>
</svg>
