<svg width="365" height="105" viewBox="0 0 365 105" fill="none" xmlns="http://www.w3.org/2000/svg">
<path d="M0 7L36.5 2L62.5 0H90L116 1L130 2.5L143.5 5.5L169 12L177.5 13H186.5V31.5L180 32L176.5 34L174.5 36.5L173 41L161.5 69L154.5 83L147.5 91L141.5 95.5L135.5 98.5L129 100.5L116 103.5L97 105L78.5 104.5L63.5 102.5L52 101L40 98.5L33.5 96L28.5 92L23.5 84L18.5 69.5L13 44L10.5 36L6.5 32L0 31V7Z" fill="black"/>
<path d="M25.8524 18.9714C26.9463 17.3306 28.2461 15.8368 29.72 14.5267L30.1795 14.1182C31.3879 13.0441 32.7325 12.1338 34.1785 11.4107V11.4107C36.0459 10.477 38.0585 9.86769 40.1301 9.60873L41 9.5L47.5 8.5L63.5 7H84H100L111.5 8L125.5 9L141 12L145.96 13.1021C148.618 13.6929 151.106 14.8845 153.232 16.5856V16.5856C154.406 17.5248 155.456 18.6086 156.359 19.8113L156.635 20.1804C157.543 21.3901 158.319 22.6922 158.953 24.0651L159.848 26.0049C160.614 27.6632 161.193 29.4012 161.576 31.187V31.187C162.187 34.0398 162.289 36.9783 161.876 39.8666L161.429 42.9941C161.144 44.9955 160.715 46.9739 160.147 48.9142L156.724 60.6086C155.577 64.5283 154.081 68.3375 152.255 71.9905L151.364 73.7717C150.456 75.5881 149.415 77.3352 148.251 78.9989L147.114 80.6222C144.404 84.494 140.881 87.7269 136.791 90.0948V90.0948C134.604 91.3606 132.278 92.3667 129.858 93.0926L128.122 93.6133C125.049 94.5354 121.89 95.1464 118.694 95.4369L107 96.5L90 97.5L69.5 96.5L55.5 95L49.8669 93.8141C47.2953 93.2727 44.7834 92.4786 42.3678 91.4433L40.3293 90.5697C39.445 90.1907 38.5972 89.7315 37.7967 89.1978V89.1978C35.6326 87.7551 33.8594 85.7989 32.6355 83.504L31.4446 81.2712C30.8158 80.0922 30.2795 78.8661 29.8405 77.6041L26.5 68L24.5 60.5L23.5 53L22.5 45.5L22 37.5V29.717C22 26.6345 22.8663 23.614 24.5 21V21L25.8524 18.9714Z" fill="#FAFCFC"/>
<path d="M364.5 7L328 2L302 0H274.5L248.5 1L234.5 2.5L221 5.5L195.5 12L187 13H178V31.5L184.5 32L188 34L190 36.5L191.5 41L203 69L210 83L217 91L223 95.5L229 98.5L235.5 100.5L248.5 103.5L267.5 105L286 104.5L301 102.5L312.5 101L324.5 98.5L331 96L336 92L341 84L346 69.5L351.5 44L354 36L358 32L364.5 31V7Z" fill="black"/>
<path d="M338.648 18.9714C337.554 17.3306 336.254 15.8368 334.78 14.5267L334.32 14.1182C333.112 13.0441 331.768 12.1338 330.321 11.4107V11.4107C328.454 10.477 326.442 9.86769 324.37 9.60873L323.5 9.5L317 8.5L301 7H280.5H264.5L253 8L239 9L223.5 12L218.54 13.1021C215.882 13.6929 213.394 14.8845 211.268 16.5856V16.5856C210.094 17.5248 209.044 18.6086 208.141 19.8113L207.865 20.1804C206.957 21.3901 206.181 22.6922 205.547 24.0651L204.652 26.0049C203.886 27.6632 203.307 29.4012 202.924 31.187V31.187C202.313 34.0398 202.211 36.9783 202.624 39.8666L203.071 42.9941C203.356 44.9955 203.785 46.9739 204.353 48.9142L207.776 60.6086C208.923 64.5283 210.419 68.3375 212.245 71.9905L213.136 73.7717C214.044 75.5881 215.085 77.3352 216.249 78.9989L217.386 80.6222C220.096 84.494 223.619 87.7269 227.709 90.0948V90.0948C229.896 91.3606 232.222 92.3667 234.642 93.0926L236.378 93.6133C239.451 94.5354 242.61 95.1464 245.806 95.4369L257.5 96.5L274.5 97.5L295 96.5L309 95L314.633 93.8141C317.205 93.2727 319.717 92.4786 322.132 91.4433L324.171 90.5697C325.055 90.1907 325.903 89.7315 326.703 89.1978V89.1978C328.867 87.7551 330.641 85.7989 331.865 83.504L333.055 81.2712C333.684 80.0922 334.22 78.8661 334.659 77.6041L338 68L340 60.5L341 53L342 45.5L342.5 37.5V29.717C342.5 26.6345 341.634 23.614 340 21V21L338.648 18.9714Z" fill="#FAFCFC"/>
</svg>
